<svg height="512pt" viewBox="0 -125 512 512" width="512pt" xmlns="http://www.w3.org/2000/svg"><path d="m504.613281 122.113281c-1-1.257812-24.960937-31.132812-67.402343-61.136719-56.425782-39.890624-119.085938-60.976562-181.210938-60.976562s-124.785156 21.085938-181.210938 60.976562c-42.441406 30.003907-66.402343 59.878907-67.402343 61.136719l-7.386719 9.289063 7.386719 9.292968c1 1.257813 24.960937 31.132813 67.402343 61.136719 56.425782 39.890625 119.085938 60.976563 181.210938 60.976563s124.785156-21.085938 181.210938-60.976563c42.441406-30.003906 66.402343-59.878906 67.402343-61.136719l7.386719-9.292968zm-147.074219 9.289063c0 55.097656-44.109374 100.085937-98.867187 101.503906-.894531.011719-1.777344.035156-2.671875.035156s-1.777344-.023437-2.671875-.035156c-54.757813-1.417969-98.867187-46.40625-98.867187-101.503906 0-55.09375 44.109374-100.082032 98.867187-101.503906.894531-.007813 1.777344-.035157 2.671875-.035157s1.777344.027344 2.671875.035157c54.757813 1.421874 98.867187 46.410156 98.867187 101.503906zm-318.554687 0c9.871094-10.566406 28.332031-28.671875 53.808594-46.582032 15.617187-10.976562 35.378906-22.878906 58.558593-32.789062-16.777343 22.066406-26.753906 49.574219-26.753906 79.371094s9.976563 57.304687 26.753906 79.375c-23.179687-9.914063-42.941406-21.8125-58.558593-32.792969-25.476563-17.90625-43.941407-36.015625-53.808594-46.582031zm380.222656 46.582031c-15.617187 10.980469-35.378906 22.882813-58.558593 32.792969 16.777343-22.066406 26.753906-49.578125 26.753906-79.375s-9.972656-57.304688-26.753906-79.371094c23.179687 9.910156 42.941406 21.8125 58.558593 32.789062 25.476563 17.910157 43.941407 36.019532 53.8125 46.582032-9.875 10.570312-28.335937 28.675781-53.8125 46.582031zm0 0"/></svg>